<?xml version="1.0" encoding="UTF-8"?>
<!--
  火瞳 Edge UI · SVG 图标精灵图
  使用: <svg><use href="assets/icons.svg#icon-name"/></svg>
-->
<svg xmlns="http://www.w3.org/2000/svg" style="display:none">

  <!-- === 导航图标 === -->
  <symbol id="icon-dashboard" viewBox="0 0 24 24" fill="none" stroke="currentColor" stroke-width="2">
    <rect x="3" y="3" width="7" height="7" rx="1"/><rect x="14" y="3" width="7" height="7" rx="1"/>
    <rect x="3" y="14" width="7" height="7" rx="1"/><rect x="14" y="14" width="7" height="7" rx="1"/>
  </symbol>
  <symbol id="icon-camera" viewBox="0 0 24 24" fill="none" stroke="currentColor" stroke-width="2">
    <path d="M23 19a2 2 0 01-2 2H3a2 2 0 01-2-2V8a2 2 0 012-2h4l2-3h6l2 3h4a2 2 0 012 2z"/>
    <circle cx="12" cy="13" r="4"/>
  </symbol>
  <symbol id="icon-iot" viewBox="0 0 24 24" fill="none" stroke="currentColor" stroke-width="2">
    <path d="M9 3H5a2 2 0 00-2 2v4m6-6h10a2 2 0 012 2v4M9 3v18m0 0h10a2 2 0 002-2V9M9 21H5a2 2 0 01-2-2V9m0 0h6"/>
    <circle cx="9" cy="9" r="1"/><circle cx="15" cy="15" r="1"/>
  </symbol>
  <symbol id="icon-engine" viewBox="0 0 24 24" fill="none" stroke="currentColor" stroke-width="2">
    <rect x="4" y="4" width="16" height="16" rx="2"/><path d="M9 9h6v6H9z"/>
    <path d="M9 2v2M15 2v2M9 20v2M15 20v2M2 9h2M2 15h2M20 9h2M20 15h2"/>
  </symbol>
  <symbol id="icon-diagnose" viewBox="0 0 24 24" fill="none" stroke="currentColor" stroke-width="2">
    <path d="M14 2H6a2 2 0 00-2 2v16a2 2 0 002 2h12a2 2 0 002-2V8z"/>
    <polyline points="14,2 14,8 20,8"/><line x1="16" y1="13" x2="8" y2="13"/>
    <line x1="16" y1="17" x2="8" y2="17"/><polyline points="10,9 9,9 8,9"/>
  </symbol>
  <symbol id="icon-settings" viewBox="0 0 24 24" fill="none" stroke="currentColor" stroke-width="2">
    <circle cx="12" cy="12" r="3"/><path d="M19.4 15a1.65 1.65 0 00.33 1.82l.06.06a2 2 0 010 2.83 2 2 0 01-2.83 0l-.06-.06a1.65 1.65 0 00-1.82-.33 1.65 1.65 0 00-1 1.51V21a2 2 0 01-4 0v-.09A1.65 1.65 0 009 19.4a1.65 1.65 0 00-1.82.33l-.06.06a2 2 0 01-2.83-2.83l.06-.06A1.65 1.65 0 004.68 15a1.65 1.65 0 00-1.51-1H3a2 2 0 010-4h.09A1.65 1.65 0 004.6 9a1.65 1.65 0 00-.33-1.82l-.06-.06a2 2 0 012.83-2.83l.06.06A1.65 1.65 0 009 4.68a1.65 1.65 0 001-1.51V3a2 2 0 014 0v.09a1.65 1.65 0 001 1.51 1.65 1.65 0 001.82-.33l.06-.06a2 2 0 012.83 2.83l-.06.06A1.65 1.65 0 0019.4 9a1.65 1.65 0 001.51 1H21a2 2 0 010 4h-.09a1.65 1.65 0 00-1.51 1z"/>
  </symbol>

  <!-- === 状态图标 === -->
  <symbol id="icon-online" viewBox="0 0 24 24" fill="none" stroke="#22c55e" stroke-width="2">
    <circle cx="12" cy="12" r="10"/><path d="M8 14s1.5 2 4 2 4-2 4-2"/>
    <line x1="9" y1="9" x2="9.01" y2="9"/><line x1="15" y1="9" x2="15.01" y2="9"/>
  </symbol>
  <symbol id="icon-offline" viewBox="0 0 24 24" fill="none" stroke="#94a3b8" stroke-width="2">
    <circle cx="12" cy="12" r="10"/><line x1="4.93" y1="4.93" x2="19.07" y2="19.07"/>
    <path d="M16 16s-1.5-2-4-2-4 2-4 2"/>
  </symbol>
  <symbol id="icon-warning" viewBox="0 0 24 24" fill="none" stroke="#f59e0b" stroke-width="2">
    <path d="M10.29 3.86L1.82 18a2 2 0 001.71 3h16.94a2 2 0 001.71-3L13.71 3.86a2 2 0 00-3.42 0z"/>
    <line x1="12" y1="9" x2="12" y2="13"/><line x1="12" y1="17" x2="12.01" y2="17"/>
  </symbol>
  <symbol id="icon-error" viewBox="0 0 24 24" fill="none" stroke="#ef4444" stroke-width="2">
    <circle cx="12" cy="12" r="10"/><line x1="15" y1="9" x2="9" y2="15"/>
    <line x1="9" y1="9" x2="15" y2="15"/>
  </symbol>
  <symbol id="icon-success" viewBox="0 0 24 24" fill="none" stroke="#22c55e" stroke-width="2">
    <path d="M22 11.08V12a10 10 0 11-5.93-9.14"/>
    <polyline points="22,4 12,14.01 9,11.01"/>
  </symbol>

  <!-- === 操作图标 === -->
  <symbol id="icon-refresh" viewBox="0 0 24 24" fill="none" stroke="currentColor" stroke-width="2">
    <polyline points="23,4 23,10 17,10"/><path d="M20.49 15a9 9 0 11-2.12-9.36L23 10"/>
  </symbol>
  <symbol id="icon-plus" viewBox="0 0 24 24" fill="none" stroke="currentColor" stroke-width="2">
    <line x1="12" y1="5" x2="12" y2="19"/><line x1="5" y1="12" x2="19" y2="12"/>
  </symbol>
  <symbol id="icon-edit" viewBox="0 0 24 24" fill="none" stroke="currentColor" stroke-width="2">
    <path d="M11 4H4a2 2 0 00-2 2v14a2 2 0 002 2h14a2 2 0 002-2v-7"/>
    <path d="M18.5 2.5a2.121 2.121 0 013 3L12 15l-4 1 1-4 9.5-9.5z"/>
  </symbol>
  <symbol id="icon-delete" viewBox="0 0 24 24" fill="none" stroke="currentColor" stroke-width="2">
    <polyline points="3,6 5,6 21,6"/><path d="M19 6v14a2 2 0 01-2 2H7a2 2 0 01-2-2V6m3 0V4a2 2 0 012-2h4a2 2 0 012 2v2"/>
  </symbol>
  <symbol id="icon-search" viewBox="0 0 24 24" fill="none" stroke="currentColor" stroke-width="2">
    <circle cx="11" cy="11" r="8"/><line x1="21" y1="21" x2="16.65" y2="16.65"/>
  </symbol>
  <symbol id="icon-download" viewBox="0 0 24 24" fill="none" stroke="currentColor" stroke-width="2">
    <path d="M21 15v4a2 2 0 01-2 2H5a2 2 0 01-2-2v-4"/>
    <polyline points="7,10 12,15 17,10"/><line x1="12" y1="15" x2="12" y2="3"/>
  </symbol>
  <symbol id="icon-upload" viewBox="0 0 24 24" fill="none" stroke="currentColor" stroke-width="2">
    <path d="M21 15v4a2 2 0 01-2 2H5a2 2 0 01-2-2v-4"/>
    <polyline points="17,8 12,3 7,8"/><line x1="12" y1="3" x2="12" y2="15"/>
  </symbol>

  <!-- === 系统图标 === -->
  <symbol id="icon-cpu" viewBox="0 0 24 24" fill="none" stroke="currentColor" stroke-width="2">
    <rect x="4" y="4" width="16" height="16" rx="2"/><rect x="9" y="9" width="6" height="6"/>
    <line x1="9" y1="1" x2="9" y2="4"/><line x1="15" y1="1" x2="15" y2="4"/>
    <line x1="9" y1="20" x2="9" y2="23"/><line x1="15" y1="20" x2="15" y2="23"/>
    <line x1="20" y1="9" x2="23" y2="9"/><line x1="20" y1="14" x2="23" y2="14"/>
    <line x1="1" y1="9" x2="4" y2="9"/><line x1="1" y1="14" x2="4" y2="14"/>
  </symbol>
  <symbol id="icon-memory" viewBox="0 0 24 24" fill="none" stroke="currentColor" stroke-width="2">
    <rect x="2" y="6" width="20" height="12" rx="2"/>
    <line x1="6" y1="10" x2="6.01" y2="10"/><line x1="10" y1="10" x2="10.01" y2="10"/>
    <line x1="14" y1="10" x2="14.01" y2="10"/><line x1="18" y1="10" x2="18.01" y2="10"/>
    <line x1="6" y1="14" x2="6.01" y2="14"/><line x1="10" y1="14" x2="10.01" y2="14"/>
    <line x1="14" y1="14" x2="14.01" y2="14"/><line x1="18" y1="14" x2="18.01" y2="14"/>
  </symbol>
  <symbol id="icon-disk" viewBox="0 0 24 24" fill="none" stroke="currentColor" stroke-width="2">
    <ellipse cx="12" cy="5" rx="9" ry="3"/>
    <path d="M21 12c0 1.66-4 3-9 3s-9-1.34-9-3"/>
    <path d="M3 5v14c0 1.66 4 3 9 3s9-1.34 9-3V5"/>
  </symbol>
  <symbol id="icon-network" viewBox="0 0 24 24" fill="none" stroke="currentColor" stroke-width="2">
    <rect x="2" y="2" width="20" height="8" rx="2" ry="2"/><rect x="2" y="14" width="20" height="8" rx="2" ry="2"/>
    <line x1="6" y1="6" x2="6.01" y2="6"/><line x1="6" y1="18" x2="6.01" y2="18"/>
  </symbol>
  <symbol id="icon-cloud" viewBox="0 0 24 24" fill="none" stroke="currentColor" stroke-width="2">
    <path d="M18 10h-1.26A8 8 0 109 20h9a5 5 0 000-10z"/>
  </symbol>
  <symbol id="icon-shield" viewBox="0 0 24 24" fill="none" stroke="currentColor" stroke-width="2">
    <path d="M12 22s8-4 8-10V5l-8-3-8 3v7c0 6 8 10 8 10z"/>
  </symbol>
  <symbol id="icon-lock" viewBox="0 0 24 24" fill="none" stroke="currentColor" stroke-width="2">
    <rect x="3" y="11" width="18" height="11" rx="2" ry="2"/>
    <path d="M7 11V7a5 5 0 0110 0v4"/>
  </symbol>

  <!-- === 品牌图标 === -->
  <symbol id="icon-logo" viewBox="0 0 48 48" fill="none">
    <circle cx="24" cy="24" r="22" fill="url(#logoGrad)" stroke="none"/>
    <defs>
      <linearGradient id="logoGrad" x1="0%" y1="0%" x2="100%" y2="100%">
        <stop offset="0%" stop-color="#C84E28"/>
        <stop offset="100%" stop-color="#E8845F"/>
      </linearGradient>
    </defs>
    <text x="24" y="30" text-anchor="middle" fill="white" font-size="20" font-family="serif" font-weight="bold">馮</text>
  </symbol>

</svg>
